<svg width="24" height="24" viewBox="0 0 24 24" fill="none" xmlns="http://www.w3.org/2000/svg">
<path d="M3.80768 14.9316C3.33203 14.9316 2.91184 14.7493 2.5471 14.3845C2.18237 14.0198 2 13.5996 2 13.1239V11.5086C2 11.4036 2.01346 11.2912 2.04038 11.1712C2.06729 11.0512 2.09742 10.9393 2.13075 10.8355L4.99659 4.07282C5.13989 3.75307 5.38012 3.48293 5.71729 3.26242C6.05447 3.0419 6.40629 2.93164 6.77274 2.93164H17.2885V14.9316L11.4711 20.6989C11.2724 20.8977 11.0423 21.0162 10.7808 21.0547C10.5192 21.0932 10.2686 21.0483 10.0289 20.9201C9.78912 20.7919 9.61349 20.6098 9.50195 20.374C9.3904 20.1381 9.36669 19.8938 9.4308 19.6413L10.5077 14.9316H3.80768ZM15.7885 14.2932V4.43162H6.76922C6.6987 4.43162 6.62658 4.45086 6.55287 4.48932C6.47913 4.52779 6.42303 4.5919 6.38457 4.68165L3.49996 11.4316V13.1239C3.49996 13.2137 3.52881 13.2874 3.58651 13.3451C3.64421 13.4028 3.71793 13.4317 3.80768 13.4317H12.4038L11.15 18.9125L15.7885 14.2932ZM20.1923 2.93164C20.6894 2.93164 21.115 3.10865 21.469 3.46267C21.823 3.81667 22 4.24223 22 4.73935V13.1239C22 13.621 21.823 14.0466 21.469 14.4006C21.115 14.7546 20.6894 14.9316 20.1923 14.9316H17.2885V13.4317H20.1923C20.282 13.4317 20.3558 13.4028 20.4135 13.3451C20.4712 13.2874 20.5 13.2137 20.5 13.1239V4.73935C20.5 4.6496 20.4712 4.57587 20.4135 4.51817C20.3558 4.46047 20.282 4.43162 20.1923 4.43162H17.2885V2.93164H20.1923Z" fill="#B9B9B9"/>
</svg>
