<svg width="32" height="32" viewBox="0 0 32 32" fill="none" xmlns="http://www.w3.org/2000/svg">
<path d="M6.32998 28C5.86472 28 5.46399 27.8337 5.1278 27.5012C4.79162 27.1687 4.62354 26.7661 4.62354 26.2936C4.62354 25.8283 4.79162 25.4276 5.1278 25.0914C5.46399 24.7552 5.86472 24.5871 6.32998 24.5871H25.6701C26.1354 24.5871 26.5361 24.7534 26.8723 25.0859C27.2085 25.4185 27.3766 25.821 27.3766 26.2936C27.3766 26.7588 27.2085 27.1595 26.8723 27.4957C26.5361 27.8319 26.1354 28 25.6701 28H6.32998ZM9.17414 19.3692H10.5809L20.0234 9.94417L19.308 9.21781L18.5992 8.51992L9.17414 17.9625V19.3692ZM7.46769 20.0474V17.665C7.46769 17.5278 7.49066 17.3973 7.5366 17.2733C7.58257 17.1494 7.65878 17.0341 7.76524 16.9277L20.2203 4.50099C20.3851 4.33619 20.5722 4.21149 20.7815 4.1269C20.9908 4.0423 21.207 4 21.4302 4C21.6606 4 21.8797 4.0423 22.0876 4.1269C22.2954 4.21149 22.4876 4.34203 22.664 4.51851L24.0314 5.90337C24.2079 6.06818 24.3355 6.25632 24.4143 6.46779C24.493 6.67928 24.5324 6.90024 24.5324 7.13067C24.5324 7.34216 24.493 7.55255 24.4143 7.76184C24.3355 7.97113 24.2079 8.16402 24.0314 8.34051L11.6047 20.7672C11.4983 20.8736 11.3831 20.9517 11.2591 21.0013C11.1351 21.0508 11.0046 21.0756 10.8674 21.0756H8.49596C8.2028 21.0756 7.95814 20.9775 7.76197 20.7814C7.56579 20.5852 7.46769 20.3405 7.46769 20.0474ZM20.0234 9.94417L19.308 9.21781L18.5992 8.51992L20.0234 9.94417Z" fill="#0B3D2C"/>
</svg>
