<svg width="24" height="24" viewBox="0 0 24 24" fill="none" xmlns="http://www.w3.org/2000/svg">
<path d="M20.1923 9.06802C20.6679 9.06802 21.0881 9.2504 21.4529 9.61515C21.8176 9.97988 22 10.4001 22 10.8757V12.4911C22 12.596 21.9865 12.7085 21.9596 12.8285C21.9327 12.9484 21.9026 13.0603 21.8692 13.1642L19.0034 19.9268C18.8601 20.2466 18.6199 20.5167 18.2827 20.7372C17.9455 20.9577 17.5937 21.068 17.2272 21.068H6.71154V9.06802L12.5289 3.30073C12.7276 3.10202 12.9577 2.98342 13.2192 2.94496C13.4808 2.90649 13.7314 2.95137 13.9711 3.07958C14.2109 3.20778 14.3865 3.38983 14.498 3.62571C14.6096 3.86161 14.6333 4.10584 14.5692 4.35839L13.4923 9.06802H20.1923ZM8.21151 9.70647V19.568H17.2308C17.3013 19.568 17.3734 19.5488 17.4471 19.5103C17.5208 19.4719 17.5769 19.4077 17.6154 19.318L20.5 12.568V10.8757C20.5 10.786 20.4712 10.7122 20.4135 10.6545C20.3558 10.5968 20.282 10.568 20.1923 10.568H11.5961L12.85 5.08721L8.21151 9.70647ZM3.8077 21.068C3.31059 21.068 2.88503 20.891 2.53103 20.537C2.17701 20.183 2 19.7574 2 19.2603V10.8757C2 10.3786 2.17701 9.95305 2.53103 9.59905C2.88503 9.24503 3.31059 9.06802 3.8077 9.06802H6.71154V10.568H3.8077C3.71795 10.568 3.64423 10.5968 3.58653 10.6545C3.52883 10.7122 3.49998 10.786 3.49998 10.8757V19.2603C3.49998 19.35 3.52883 19.4238 3.58653 19.4815C3.64423 19.5392 3.71795 19.568 3.8077 19.568H6.71154V21.068H3.8077Z" fill="#B9B9B9"/>
</svg>
