<svg width="164" height="164" viewBox="0 0 164 164" fill="none" xmlns="http://www.w3.org/2000/svg">
<g filter="url(#filter0_d_226_340)">
<rect x="32" y="16" width="100" height="100" rx="50" fill="white" shape-rendering="crispEdges"/>
<g clip-path="url(#clip0_226_340)">
<path d="M72.6569 53.3333H74.3236V74.3333C75.3236 74.2222 76.268 74.2778 77.1569 74.5V63H78.8236C81.268 63 83.3513 62.1389 85.0736 60.4167C86.7958 58.6944 87.6569 56.6111 87.6569 54.1667V49.5H85.4902C83.6013 49.5 82.1569 49.6111 81.1569 49.8333C79.7125 50.0556 78.3791 50.7222 77.1569 51.8333V48.3333C77.0458 46 76.1569 44.0278 74.4902 42.4167C72.8236 40.8056 70.8236 40 68.4902 40H63.8236V44.5C63.8236 46.9444 64.6847 49.0278 66.4069 50.75C68.1291 52.4722 70.2125 53.3333 72.6569 53.3333ZM91.1569 74.6667L91.9902 68.1667C90.8791 67.9444 89.768 68 88.6569 68.3333C87.5458 68.6667 86.5458 69.2778 85.6569 70.1667L80.3236 75.5C82.8791 76.8333 84.6569 78.8333 85.6569 81.5C88.3236 81.3889 90.5458 82.0556 92.3236 83.5L95.6569 80.1667C96.5458 79.2778 97.1569 78.2778 97.4902 77.1667C97.8236 76.0556 97.8791 74.9444 97.6569 73.8333L91.1569 74.6667ZM94.9902 68.3333C94.8791 68.7778 94.7125 69.7778 94.4902 71.3333L97.4902 71L98.6569 69.8333L96.1569 67.1667L94.9902 68.3333ZM105.99 59.8333C105.657 59.5 105.24 59.3333 104.74 59.3333C104.24 59.3333 103.824 59.5 103.49 59.8333L98.1569 65.1667L100.657 67.6667L105.99 62.5C106.324 62.1667 106.49 61.7222 106.49 61.1667C106.49 60.6111 106.324 60.1667 105.99 59.8333ZM91.3236 86.6667C90.768 86 90.0736 85.4722 89.2402 85.0833C88.4069 84.6944 87.5458 84.5 86.6569 84.5H83.4902C83.0458 82.1667 82.0458 80.3611 80.4902 79.0833C78.9347 77.8056 77.1569 77.1667 75.1569 77.1667C73.1569 77.1667 71.3513 77.8056 69.7402 79.0833C68.1291 80.3611 67.1013 82.1667 66.6569 84.5H63.6569C62.1013 84.5 60.7125 85.0278 59.4902 86.0833C58.268 87.1389 57.6013 88.4444 57.4902 90H92.8236C92.6013 88.7778 92.1013 87.6667 91.3236 86.6667Z" fill="#2A7D2E"/>
</g>
</g>
<defs>
<filter id="filter0_d_226_340" x="0" y="0" width="164" height="164" filterUnits="userSpaceOnUse" color-interpolation-filters="sRGB">
<feFlood flood-opacity="0" result="BackgroundImageFix"/>
<feColorMatrix in="SourceAlpha" type="matrix" values="0 0 0 0 0 0 0 0 0 0 0 0 0 0 0 0 0 0 127 0" result="hardAlpha"/>
<feOffset dy="16"/>
<feGaussianBlur stdDeviation="16"/>
<feComposite in2="hardAlpha" operator="out"/>
<feColorMatrix type="matrix" values="0 0 0 0 0 0 0 0 0 0 0 0 0 0 0 0 0 0 0.04 0"/>
<feBlend mode="normal" in2="BackgroundImageFix" result="effect1_dropShadow_226_340"/>
<feBlend mode="normal" in="SourceGraphic" in2="effect1_dropShadow_226_340" result="shape"/>
</filter>
<clipPath id="clip0_226_340">
<rect width="50.02" height="50" fill="white" transform="matrix(1 0 0 -1 56.9805 90)"/>
</clipPath>
</defs>
</svg>
