<svg width="164" height="164" viewBox="0 0 164 164" fill="none" xmlns="http://www.w3.org/2000/svg">
<g filter="url(#filter0_d_226_348)">
<rect x="32" y="16" width="100" height="100" rx="50" fill="white" shape-rendering="crispEdges"/>
<g clip-path="url(#clip0_226_348)">
<path d="M100.324 65C102.546 63.6667 103.963 61.8056 104.574 59.4167C105.185 57.0278 104.879 54.7222 103.657 52.5C102.435 50.2778 100.602 48.8333 98.1571 48.1667C95.7127 47.5 93.3793 47.7778 91.1571 49C91.1571 46.5556 90.2682 44.4444 88.4905 42.6667C86.7127 40.8889 84.546 40 81.9905 40C79.4349 40 77.2682 40.8889 75.4905 42.6667C73.7127 44.4444 72.8238 46.5556 72.8238 49C70.6016 47.7778 68.2682 47.5 65.8238 48.1667C63.3793 48.8333 61.546 50.2778 60.3238 52.5C59.1016 54.7222 58.796 57.0278 59.4071 59.4167C60.0182 61.8056 61.4349 63.6667 63.6571 65C61.4349 66.3333 60.0182 68.1944 59.4071 70.5833C58.796 72.9722 59.1016 75.2778 60.3238 77.5C61.546 79.7222 63.3793 81.1667 65.8238 81.8333C68.2682 82.5 70.6016 82.2222 72.8238 81C72.8238 83.4444 73.7127 85.5556 75.4905 87.3333C77.2682 89.1111 79.4349 90 81.9905 90C84.546 90 86.7127 89.1111 88.4905 87.3333C90.2682 85.5556 91.1571 83.4444 91.1571 81C93.3793 82.2222 95.7127 82.5 98.1571 81.8333C100.602 81.1667 102.435 79.7222 103.657 77.5C104.879 75.2778 105.185 72.9722 104.574 70.5833C103.963 68.1944 102.546 66.3333 100.324 65ZM81.9905 73.5C79.6571 73.5 77.6571 72.6667 75.9905 71C74.3238 69.3333 73.4905 67.3333 73.4905 65C73.4905 62.6667 74.3238 60.6667 75.9905 59C77.6571 57.3333 79.6571 56.5 81.9905 56.5C84.3238 56.5 86.3238 57.3333 87.9905 59C89.6571 60.6667 90.4905 62.6667 90.4905 65C90.4905 67.3333 89.6571 69.3333 87.9905 71C86.3238 72.6667 84.3238 73.5 81.9905 73.5Z" fill="#2A7D2E"/>
</g>
</g>
<defs>
<filter id="filter0_d_226_348" x="0" y="0" width="164" height="164" filterUnits="userSpaceOnUse" color-interpolation-filters="sRGB">
<feFlood flood-opacity="0" result="BackgroundImageFix"/>
<feColorMatrix in="SourceAlpha" type="matrix" values="0 0 0 0 0 0 0 0 0 0 0 0 0 0 0 0 0 0 127 0" result="hardAlpha"/>
<feOffset dy="16"/>
<feGaussianBlur stdDeviation="16"/>
<feComposite in2="hardAlpha" operator="out"/>
<feColorMatrix type="matrix" values="0 0 0 0 0 0 0 0 0 0 0 0 0 0 0 0 0 0 0.04 0"/>
<feBlend mode="normal" in2="BackgroundImageFix" result="effect1_dropShadow_226_348"/>
<feBlend mode="normal" in="SourceGraphic" in2="effect1_dropShadow_226_348" result="shape"/>
</filter>
<clipPath id="clip0_226_348">
<rect width="50.02" height="50" fill="white" transform="matrix(1 0 0 -1 56.9805 90)"/>
</clipPath>
</defs>
</svg>
