<svg width="164" height="164" viewBox="0 0 164 164" fill="none" xmlns="http://www.w3.org/2000/svg">
<g filter="url(#filter0_d_226_356)">
<rect x="32" y="16" width="100" height="100" rx="50" fill="white" shape-rendering="crispEdges"/>
<path d="M99.4909 80.3333C98.4909 80.3333 97.5464 80.6111 96.6576 81.1667L96.3242 81.5C96.3242 80.2778 95.8798 79.2222 94.9909 78.3333C94.102 77.4445 93.0187 77 91.7409 77C90.4631 77 89.4353 77.3889 88.6576 78.1667C88.5464 76.2778 87.852 74.7222 86.5742 73.5C85.2964 72.2778 83.7687 71.6667 81.9909 71.6667C80.2131 71.6667 78.6853 72.3056 77.4076 73.5833C76.1298 74.8611 75.4353 76.3889 75.3242 78.1667C74.9909 77.7222 74.602 77.4445 74.1576 77.3333V68.1667L74.3242 67.8333C77.6576 68.5 80.2131 68.1667 81.9909 66.8333C83.3242 66.0556 84.2687 64.7222 84.8242 62.8333C85.2687 61.7222 85.5464 60.5556 85.6576 59.3333C85.6576 59 85.5464 58.8333 85.3242 58.8333C84.102 58.5 82.8798 58.3333 81.6576 58.3333C79.6576 58.3333 78.0464 58.75 76.8242 59.5833C75.602 60.4167 74.7131 61.6111 74.1576 63.1667V54.3333L74.4909 54C76.8242 54.2222 78.6576 53.7778 79.9909 52.6667C80.8798 51.8889 81.4909 50.8333 81.8242 49.5C82.0464 48.6111 82.1576 47.6667 82.1576 46.6667C82.1576 46.3333 81.9909 46.1667 81.6576 46.1667C80.7687 46.0556 79.8242 46.0556 78.8242 46.1667C77.3798 46.2778 76.2131 46.7222 75.3242 47.5C74.8798 47.8333 74.4909 48.3333 74.1576 49V44.3333C74.1576 44 74.0464 43.75 73.8242 43.5833C73.602 43.4167 73.3798 43.3333 73.1576 43.3333C72.9353 43.3333 72.7131 43.4167 72.4909 43.5833C72.2687 43.75 72.1576 44 72.1576 44.3333V49.1667C71.8242 48.5 71.3798 47.9445 70.8242 47.5C70.0464 46.7222 68.8798 46.2778 67.3242 46.1667C66.4353 46.0556 65.4909 46.0556 64.4909 46.1667C64.2687 46.1667 64.102 46.3333 63.9909 46.6667C63.9909 47.6667 64.102 48.6111 64.3242 49.5C64.7687 50.8333 65.4353 51.8889 66.3242 52.6667C67.5464 53.7778 69.3798 54.2222 71.8242 54L72.1576 54.3333V63.1667C71.4909 61.6111 70.5742 60.4167 69.4076 59.5833C68.2409 58.75 66.6576 58.3333 64.6576 58.3333C63.4353 58.3333 62.2131 58.5 60.9909 58.8333C60.7687 58.8333 60.6576 59 60.6576 59.3333C60.7687 60.5556 60.9909 61.7222 61.3242 62.8333C61.9909 64.7222 62.9353 66.0556 64.1576 66.8333C66.0464 68.1667 68.6576 68.5 71.9909 67.8333L72.1576 68V77C70.9353 77 69.8798 77.4445 68.9909 78.3333C68.102 79.2222 67.6576 80.2778 67.6576 81.5C66.7687 80.7222 65.7131 80.3333 64.4909 80.3333C63.2687 80.3333 62.1853 80.7778 61.2409 81.6667C60.2964 82.5556 59.8242 83.6667 59.8242 85C59.8242 85.6667 59.9353 86.2778 60.1576 86.8333H103.824C104.046 86.2778 104.158 85.6667 104.158 85C104.158 83.6667 103.685 82.5556 102.741 81.6667C101.796 80.7778 100.713 80.3333 99.4909 80.3333ZM64.4909 84.6667C64.1576 84.6667 63.9076 84.5556 63.7409 84.3333C63.5742 84.1111 63.4909 83.8889 63.4909 83.6667C63.4909 83.4445 63.5742 83.2222 63.7409 83C63.9076 82.7778 64.1298 82.6667 64.4076 82.6667C64.6853 82.6667 64.9353 82.7778 65.1576 83C65.3798 83.2222 65.4909 83.4445 65.4909 83.6667C65.4909 83.8889 65.3798 84.1111 65.1576 84.3333C64.9353 84.5556 64.7131 84.6667 64.4909 84.6667ZM69.8242 84.8333C69.602 84.8333 69.3798 84.7222 69.1576 84.5C68.9353 84.2778 68.8242 84.0278 68.8242 83.75C68.8242 83.4722 68.9353 83.25 69.1576 83.0833C69.3798 82.9167 69.6298 82.8333 69.9076 82.8333C70.1853 82.8333 70.4076 82.9167 70.5742 83.0833C70.7409 83.25 70.8242 83.4722 70.8242 83.75C70.8242 84.0278 70.7409 84.2778 70.5742 84.5C70.4076 84.7222 70.1576 84.8333 69.8242 84.8333ZM71.4909 81.8333C71.1576 81.8333 70.9076 81.75 70.7409 81.5833C70.5742 81.4167 70.4909 81.1945 70.4909 80.9167C70.4909 80.6389 70.5742 80.3889 70.7409 80.1667C70.9076 79.9445 71.1298 79.8333 71.4076 79.8333C71.6853 79.8333 71.9076 79.9445 72.0742 80.1667C72.2409 80.3889 72.3242 80.6389 72.3242 80.9167C72.3242 81.1945 72.2409 81.4167 72.0742 81.5833C71.9076 81.75 71.7131 81.8333 71.4909 81.8333ZM74.6576 83.6667C74.3242 83.6667 74.0742 83.5556 73.9076 83.3333C73.7409 83.1111 73.6576 82.8889 73.6576 82.6667C73.6576 82.4445 73.7409 82.2222 73.9076 82C74.0742 81.7778 74.2964 81.6667 74.5742 81.6667C74.852 81.6667 75.102 81.7778 75.3242 82C75.5464 82.2222 75.6576 82.4445 75.6576 82.6667C75.6576 82.8889 75.5464 83.1111 75.3242 83.3333C75.102 83.5556 74.8798 83.6667 74.6576 83.6667ZM78.4909 82.1667C78.1576 82.1667 77.9076 82.0833 77.7409 81.9167C77.5742 81.75 77.4909 81.5278 77.4909 81.25C77.4909 80.9722 77.5742 80.75 77.7409 80.5833C77.9076 80.4167 78.1298 80.3333 78.4076 80.3333C78.6853 80.3333 78.9353 80.4167 79.1576 80.5833C79.3798 80.75 79.4909 80.9722 79.4909 81.25C79.4909 81.5278 79.3798 81.75 79.1576 81.9167C78.9353 82.0833 78.7131 82.1667 78.4909 82.1667ZM79.6576 78C79.6576 77.7778 79.7409 77.5556 79.9076 77.3333C80.0742 77.1111 80.2964 77 80.5742 77C80.852 77 81.0742 77.1111 81.2409 77.3333C81.4076 77.5556 81.4909 77.8056 81.4909 78.0833C81.4909 78.3611 81.4076 78.5833 81.2409 78.75C81.0742 78.9167 80.852 79 80.5742 79C80.2964 79 80.0742 78.9167 79.9076 78.75C79.7409 78.5833 79.6576 78.3333 79.6576 78ZM81.9909 84.1667C81.7687 84.1667 81.5464 84.0833 81.3242 83.9167C81.102 83.75 80.9909 83.5278 80.9909 83.25C80.9909 82.9722 81.102 82.75 81.3242 82.5833C81.5464 82.4167 81.7687 82.3333 81.9909 82.3333C82.2131 82.3333 82.4353 82.4167 82.6576 82.5833C82.8798 82.75 82.9909 82.9722 82.9909 83.25C82.9909 83.5278 82.8798 83.75 82.6576 83.9167C82.4353 84.0833 82.2131 84.1667 81.9909 84.1667ZM82.9909 76C82.9909 75.7778 83.0742 75.5556 83.2409 75.3333C83.4076 75.1111 83.6298 75 83.9076 75C84.1853 75 84.4353 75.1111 84.6576 75.3333C84.8798 75.5556 84.9909 75.8056 84.9909 76.0833C84.9909 76.3611 84.8798 76.5833 84.6576 76.75C84.4353 76.9167 84.1853 77 83.9076 77C83.6298 77 83.4076 76.8889 83.2409 76.6667C83.0742 76.4445 82.9909 76.2222 82.9909 76ZM84.4909 81.5C84.2687 81.5 84.0464 81.3889 83.8242 81.1667C83.602 80.9445 83.4909 80.6945 83.4909 80.4167C83.4909 80.1389 83.602 79.9167 83.8242 79.75C84.0464 79.5833 84.2964 79.5 84.5742 79.5C84.852 79.5 85.0742 79.5833 85.2409 79.75C85.4076 79.9167 85.4909 80.1389 85.4909 80.4167C85.4909 80.6945 85.4076 80.9445 85.2409 81.1667C85.0742 81.3889 84.8242 81.5 84.4909 81.5ZM88.6576 84.3333C88.3242 84.3333 88.0742 84.2222 87.9076 84C87.7409 83.7778 87.6576 83.5278 87.6576 83.25C87.6576 82.9722 87.7409 82.75 87.9076 82.5833C88.0742 82.4167 88.2964 82.3333 88.5742 82.3333C88.852 82.3333 89.102 82.4167 89.3242 82.5833C89.5464 82.75 89.6576 82.9722 89.6576 83.25C89.6576 83.5278 89.5464 83.7778 89.3242 84C89.102 84.2222 88.8798 84.3333 88.6576 84.3333ZM92.3242 81.8333C91.9909 81.8333 91.7409 81.7222 91.5742 81.5C91.4076 81.2778 91.3242 81.0556 91.3242 80.8333C91.3242 80.6111 91.4076 80.3889 91.5742 80.1667C91.7409 79.9445 91.9631 79.8333 92.2409 79.8333C92.5187 79.8333 92.7687 79.9445 92.9909 80.1667C93.2131 80.3889 93.3242 80.6111 93.3242 80.8333C93.3242 81.0556 93.2131 81.2778 92.9909 81.5C92.7687 81.7222 92.5464 81.8333 92.3242 81.8333ZM94.3242 84.6667C94.102 84.6667 93.8798 84.5833 93.6576 84.4167C93.4353 84.25 93.3242 84.0278 93.3242 83.75C93.3242 83.4722 93.4353 83.2222 93.6576 83C93.8798 82.7778 94.1298 82.6667 94.4076 82.6667C94.6853 82.6667 94.9076 82.7778 95.0742 83C95.2409 83.2222 95.3242 83.4722 95.3242 83.75C95.3242 84.0278 95.2409 84.25 95.0742 84.4167C94.9076 84.5833 94.6576 84.6667 94.3242 84.6667ZM99.4909 84.8333C99.2687 84.8333 99.0464 84.75 98.8242 84.5833C98.602 84.4167 98.4909 84.1945 98.4909 83.9167C98.4909 83.6389 98.602 83.3889 98.8242 83.1667C99.0464 82.9445 99.2964 82.8333 99.5742 82.8333C99.852 82.8333 100.074 82.9445 100.241 83.1667C100.408 83.3889 100.491 83.6389 100.491 83.9167C100.491 84.1945 100.408 84.4167 100.241 84.5833C100.074 84.75 99.8242 84.8333 99.4909 84.8333ZM89.9909 75.3333C90.5464 75.1111 91.102 75 91.6576 75C92.9909 75 94.1853 75.3333 95.2409 76C96.2964 76.6667 97.0464 77.5556 97.4909 78.6667C98.1576 78.5556 98.8242 78.5 99.4909 78.5H100.158L101.324 72.3333C101.435 71.6667 101.296 71.0278 100.908 70.4167C100.519 69.8056 99.9909 69.4445 99.3242 69.3333L95.8242 68.6667L99.4909 49.5L100.991 49.6667C101.546 49.7778 102.019 49.6945 102.408 49.4167C102.796 49.1389 103.046 48.7778 103.158 48.3333L103.491 46.1667C103.602 45.7222 103.519 45.2778 103.241 44.8333C102.963 44.3889 102.546 44.1667 101.991 44.1667L97.1576 43.1667C96.7131 43.0556 96.2964 43.1667 95.9076 43.5C95.5187 43.8333 95.2687 44.2222 95.1576 44.6667L94.6576 46.6667C94.6576 47.2222 94.7964 47.6945 95.0742 48.0833C95.352 48.4722 95.7131 48.7222 96.1576 48.8333L97.6576 49.1667L93.9909 68.3333L90.4909 67.6667C89.7131 67.5556 89.0464 67.6945 88.4909 68.0833C87.9353 68.4722 87.602 69 87.4909 69.6667L87.1576 71.5L87.6576 72C88.6576 72.8889 89.4353 74 89.9909 75.3333ZM96.6576 47L96.9909 45.1667L101.658 46L101.324 47.8333L96.6576 47Z" fill="#2A7D2E"/>
</g>
<defs>
<filter id="filter0_d_226_356" x="0" y="0" width="164" height="164" filterUnits="userSpaceOnUse" color-interpolation-filters="sRGB">
<feFlood flood-opacity="0" result="BackgroundImageFix"/>
<feColorMatrix in="SourceAlpha" type="matrix" values="0 0 0 0 0 0 0 0 0 0 0 0 0 0 0 0 0 0 127 0" result="hardAlpha"/>
<feOffset dy="16"/>
<feGaussianBlur stdDeviation="16"/>
<feComposite in2="hardAlpha" operator="out"/>
<feColorMatrix type="matrix" values="0 0 0 0 0 0 0 0 0 0 0 0 0 0 0 0 0 0 0.04 0"/>
<feBlend mode="normal" in2="BackgroundImageFix" result="effect1_dropShadow_226_356"/>
<feBlend mode="normal" in="SourceGraphic" in2="effect1_dropShadow_226_356" result="shape"/>
</filter>
</defs>
</svg>
