<svg width="164" height="164" viewBox="0 0 164 164" fill="none" xmlns="http://www.w3.org/2000/svg">
<g filter="url(#filter0_d_226_364)">
<rect x="32" y="16" width="100" height="100" rx="50" fill="white" shape-rendering="crispEdges"/>
<g clip-path="url(#clip0_226_364)">
<path d="M93.9902 46.5C93.9902 48.2778 94.6291 49.7778 95.9069 51C97.1847 52.2222 98.7125 52.8333 100.49 52.8333C102.268 52.8333 103.768 52.2222 104.99 51C106.212 49.7778 106.824 48.2778 106.824 46.5C106.824 44.7222 106.212 43.1944 104.99 41.9167C103.768 40.6389 102.268 40 100.49 40C98.7125 40 97.1847 40.6389 95.9069 41.9167C94.6291 43.1944 93.9902 44.7222 93.9902 46.5ZM92.1569 76.1667H96.1569V80.3333H92.1569V76.1667ZM84.4902 53.6667C85.3791 52.8889 86.3791 52.5 87.4902 52.5C88.6013 52.5 89.5458 52.8889 90.3236 53.6667L91.4902 54.6667V51C91.4902 49 91.018 47.1667 90.0736 45.5C89.1291 43.8333 87.7958 42.5 86.0736 41.5C84.3513 40.5 82.5458 40 80.6569 40C77.9902 40 75.6569 40.8333 73.6569 42.5C71.6569 44.1667 70.3791 46.2778 69.8236 48.8333C72.8236 53.2778 74.768 57.5 75.6569 61.5L84.4902 53.6667ZM105.49 87H103.49V73.1667L104.49 74C104.712 74.2222 105.046 74.3333 105.49 74.3333C105.935 74.3333 106.296 74.1667 106.574 73.8333C106.851 73.5 106.962 73.1389 106.907 72.75C106.851 72.3611 106.657 72.0556 106.324 71.8333L102.157 68V60.3333C102.157 60 102.018 59.6667 101.74 59.3333C101.462 59 101.101 58.8333 100.657 58.8333C100.212 58.8333 99.8513 59 99.5736 59.3333C99.2958 59.6667 99.1569 60 99.1569 60.3333V65.3333L88.4902 55.8333C88.1569 55.6111 87.7958 55.5 87.4069 55.5C87.018 55.5 86.7125 55.6111 86.4902 55.8333L68.4902 71.8333C68.1569 72.0556 67.9902 72.3611 67.9902 72.75C67.9902 73.1389 68.1291 73.5 68.4069 73.8333C68.6847 74.1667 69.018 74.3333 69.4069 74.3333C69.7958 74.3333 70.1569 74.2222 70.4902 74L71.4902 73.1667V87H66.6569V80.6667C67.3236 80.4444 67.9347 80.1111 68.4902 79.6667V77.1667C67.6013 76.9444 66.8236 76.5 66.1569 75.8333C65.3791 74.9444 65.018 73.8889 65.0736 72.6667C65.1291 71.4444 65.6569 70.3889 66.6569 69.5L73.1569 63.6667C72.7125 60.6667 71.4902 57.3333 69.4902 53.6667C68.4902 51.7778 67.4347 50.1667 66.3236 48.8333C66.1013 48.5 65.7402 48.3333 65.2402 48.3333C64.7402 48.3333 64.3236 48.5 63.9902 48.8333C62.768 50.5 61.6013 52.4444 60.4902 54.6667C58.268 59.1111 57.1569 62.9444 57.1569 66.1667C57.1569 70.0556 57.8236 73.3889 59.1569 76.1667C60.3791 78.6111 61.9347 80.1111 63.8236 80.6667V87H58.4902C58.0458 87 57.6847 87.1389 57.4069 87.4167C57.1291 87.6944 56.9902 88.0556 56.9902 88.5C56.9902 88.9444 57.1291 89.3056 57.4069 89.5833C57.6847 89.8611 58.0458 90 58.4902 90H105.49C105.935 90 106.296 89.8611 106.574 89.5833C106.851 89.3056 106.99 88.9444 106.99 88.5C106.99 88.0556 106.851 87.6944 106.574 87.4167C106.296 87.1389 105.935 87 105.49 87ZM89.1569 74.6667C89.1569 74.3333 89.2958 74 89.5736 73.6667C89.8513 73.3333 90.2125 73.1667 90.6569 73.1667H97.6569C98.1013 73.1667 98.4625 73.3333 98.7402 73.6667C99.018 74 99.1569 74.3333 99.1569 74.6667V81.8333C99.1569 82.1667 99.018 82.4722 98.7402 82.75C98.4625 83.0278 98.1013 83.1667 97.6569 83.1667H90.6569C90.2125 83.1667 89.8513 83.0278 89.5736 82.75C89.2958 82.4722 89.1569 82.1667 89.1569 81.8333V74.6667ZM81.1569 87V76.1667H78.1569V87H75.3236V74.6667C75.3236 74.3333 75.4625 74 75.7402 73.6667C76.018 73.3333 76.3791 73.1667 76.8236 73.1667H82.6569C82.9902 73.1667 83.3236 73.3333 83.6569 73.6667C83.9902 74 84.1569 74.3333 84.1569 74.6667V87H81.1569Z" fill="#2A7D2E"/>
</g>
</g>
<defs>
<filter id="filter0_d_226_364" x="0" y="0" width="164" height="164" filterUnits="userSpaceOnUse" color-interpolation-filters="sRGB">
<feFlood flood-opacity="0" result="BackgroundImageFix"/>
<feColorMatrix in="SourceAlpha" type="matrix" values="0 0 0 0 0 0 0 0 0 0 0 0 0 0 0 0 0 0 127 0" result="hardAlpha"/>
<feOffset dy="16"/>
<feGaussianBlur stdDeviation="16"/>
<feComposite in2="hardAlpha" operator="out"/>
<feColorMatrix type="matrix" values="0 0 0 0 0 0 0 0 0 0 0 0 0 0 0 0 0 0 0.04 0"/>
<feBlend mode="normal" in2="BackgroundImageFix" result="effect1_dropShadow_226_364"/>
<feBlend mode="normal" in="SourceGraphic" in2="effect1_dropShadow_226_364" result="shape"/>
</filter>
<clipPath id="clip0_226_364">
<rect width="50.02" height="50" fill="white" transform="matrix(1 0 0 -1 56.9805 90)"/>
</clipPath>
</defs>
</svg>
