<svg width="24" height="24" viewBox="0 0 24 24" fill="none" xmlns="http://www.w3.org/2000/svg">
<path d="M3.94157 22C3.55385 22 3.21991 21.8614 2.93975 21.5843C2.6596 21.3072 2.51953 20.9718 2.51953 20.578C2.51953 20.1903 2.6596 19.8563 2.93975 19.5762C3.21991 19.296 3.55385 19.1559 3.94157 19.1559H20.0583C20.4461 19.1559 20.78 19.2945 21.0602 19.5716C21.3403 19.8487 21.4804 20.1842 21.4804 20.578C21.4804 20.9657 21.3403 21.2996 21.0602 21.5798C20.78 21.8599 20.4461 22 20.0583 22H3.94157ZM6.3117 14.8077H7.48398L15.3528 6.95347L14.7566 6.34817L14.1659 5.7666L6.3117 13.6354V14.8077ZM4.88966 15.3728V13.3875C4.88966 13.2732 4.9088 13.1644 4.94709 13.0611C4.98539 12.9578 5.0489 12.8618 5.13762 12.7731L15.5169 2.41749C15.6542 2.28015 15.8101 2.17624 15.9845 2.10575C16.1589 2.03525 16.3391 2 16.5251 2C16.7171 2 16.8997 2.03525 17.0729 2.10575C17.2461 2.17624 17.4062 2.28502 17.5533 2.43209L18.6928 3.58615C18.8398 3.72349 18.9462 3.88027 19.0118 4.05649C19.0774 4.23274 19.1103 4.41687 19.1103 4.60889C19.1103 4.78514 19.0774 4.96046 19.0118 5.13487C18.9462 5.30928 18.8398 5.47002 18.6928 5.61709L8.33719 15.9726C8.24847 16.0614 8.15246 16.1264 8.04916 16.1677C7.94584 16.209 7.83705 16.2297 7.72279 16.2297H5.74655C5.50225 16.2297 5.29837 16.148 5.1349 15.9845C4.97141 15.821 4.88966 15.6171 4.88966 15.3728ZM15.3528 6.95347L14.7566 6.34817L14.1659 5.7666L15.3528 6.95347Z" fill="#B9B9B9"/>
</svg>
