<svg width="40" height="40" viewBox="0 0 40 40" fill="none" xmlns="http://www.w3.org/2000/svg">
<g filter="url(#filter0_b_65_463)">
<circle cx="20" cy="20" r="20" fill="#0B3D2C"/>
</g>
<path d="M29.2932 20.6775L11.6037 28.1354C11.2219 28.2882 10.8592 28.2553 10.5155 28.0367C10.1718 27.8182 10 27.501 10 27.085V12.1447C10 11.7287 10.1718 11.4115 10.5155 11.193C10.8592 10.9744 11.2219 10.9415 11.6037 11.0943L29.2932 18.5522C29.7644 18.7602 30 19.1144 30 19.6148C30 20.1153 29.7644 20.4695 29.2932 20.6775ZM11.901 25.9517L26.9194 19.6148L11.901 13.278V17.9575L18.774 19.6148L11.901 21.2722V25.9517Z" fill="white"/>
<defs>
<filter id="filter0_b_65_463" x="-20" y="-20" width="80" height="80" filterUnits="userSpaceOnUse" color-interpolation-filters="sRGB">
<feFlood flood-opacity="0" result="BackgroundImageFix"/>
<feGaussianBlur in="BackgroundImageFix" stdDeviation="10"/>
<feComposite in2="SourceAlpha" operator="in" result="effect1_backgroundBlur_65_463"/>
<feBlend mode="normal" in="SourceGraphic" in2="effect1_backgroundBlur_65_463" result="shape"/>
</filter>
</defs>
</svg>
